<svg width="24" height="24" viewBox="0 0 24 24" fill="none" xmlns="http://www.w3.org/2000/svg">
<path d="M16 10C15.4477 10 15 10.4477 15 11C15 11.5523 15.4477 12 16 12L16 11L16 10ZM18.3284 9.82843L19.0355 10.5355L19.0355 10.5355L18.3284 9.82843ZM18.3284 4.17157L19.0355 3.46447L19.0355 3.46447L18.3284 4.17157ZM15.5 2C14.9477 2 14.5 2.44772 14.5 3C14.5 3.55228 14.9477 4 15.5 4L15.5 3L15.5 2ZM1 21C1 21.5523 1.44772 22 2 22C2.55228 22 3 21.5523 3 21H2H1ZM15 21C15 21.5523 15.4477 22 16 22C16.5523 22 17 21.5523 17 21H16H15ZM8.27764 14.0516L8.20639 13.0541L8.20639 13.0541L8.27764 14.0516ZM8.86729 14.0168L8.84518 13.017L8.84518 13.017L8.86729 14.0168ZM9.72236 14.0516L9.79361 13.0541L9.79361 13.0541L9.72236 14.0516ZM9.13271 14.0168L9.15482 13.017L9.15482 13.017L9.13271 14.0168ZM15.4769 16.2468L14.6077 16.7412L14.6077 16.7412L15.4769 16.2468ZM14.2204 14.8973L14.7755 14.0656L14.7755 14.0656L14.2204 14.8973ZM2.52313 16.2468L1.65391 15.7523L1.65391 15.7523L2.52313 16.2468ZM3.7796 14.8973L4.3347 15.7291L4.3347 15.7291L3.7796 14.8973ZM21 21C21 21.5523 21.4477 22 22 22C22.5523 22 23 21.5523 23 21H22H21ZM21.996 17.699L22.995 17.6541L22.995 17.6541L21.996 17.699ZM19.2997 13.046C18.7728 12.8805 18.2115 13.1734 18.046 13.7003C17.8805 14.2272 18.1734 14.7885 18.7003 14.954L19 14L19.2997 13.046ZM19.3688 14.1201L19.711 13.1804L19.711 13.1804L19.3688 14.1201ZM13 7H12C12 8.65685 10.6569 10 9 10V11V12C11.7614 12 14 9.76142 14 7H13ZM9 11V10C7.34315 10 6 8.65685 6 7H5H4C4 9.76142 6.23858 12 9 12V11ZM5 7H6C6 5.34315 7.34315 4 9 4V3V2C6.23858 2 4 4.23858 4 7H5ZM9 3V4C10.6569 4 12 5.34315 12 7H13H14C14 4.23858 11.7614 2 9 2V3ZM16 11L16 12C16.6799 12 17.2464 11.8607 17.7692 11.5681C18.258 11.2945 18.6605 10.9106 19.0355 10.5355L18.3284 9.82843L17.6213 9.12132C17.2462 9.49641 17.015 9.69828 16.7923 9.82292C16.6036 9.92856 16.381 10 16 10L16 11ZM18.3284 9.82843L19.0355 10.5355C19.9732 9.59785 20.5 8.32608 20.5 7L19.5 7L18.5 7C18.5 7.79565 18.1839 8.55871 17.6213 9.12132L18.3284 9.82843ZM19.5 7L20.5 7C20.5 5.67392 19.9732 4.40215 19.0355 3.46447L18.3284 4.17157L17.6213 4.87868C18.1839 5.44129 18.5 6.20435 18.5 7L19.5 7ZM18.3284 4.17157L19.0355 3.46447C18.0979 2.52678 16.8261 2 15.5 2L15.5 3L15.5 4C16.2957 4 17.0587 4.31607 17.6213 4.87868L18.3284 4.17157ZM2 21H3V20.7936H2H1V21H2ZM16 20.7936H15V21H16H17V20.7936H16ZM8.27764 14.0516L8.34889 15.0491C8.65281 15.0273 8.77203 15.0191 8.88941 15.0165L8.86729 14.0168L8.84518 13.017C8.66745 13.0209 8.49194 13.0337 8.20639 13.0541L8.27764 14.0516ZM9.72236 14.0516L9.79361 13.0541C9.50806 13.0337 9.33255 13.0209 9.15482 13.017L9.13271 14.0168L9.11059 15.0165C9.22797 15.0191 9.34719 15.0273 9.65111 15.0491L9.72236 14.0516ZM8.86729 14.0168L8.88941 15.0165C8.96313 15.0149 9.03687 15.0149 9.11059 15.0165L9.13271 14.0168L9.15482 13.017C9.05162 13.0147 8.94838 13.0147 8.84518 13.017L8.86729 14.0168ZM16 20.7936H17C17 19.6029 17.001 18.643 16.9305 17.8678C16.8587 17.0775 16.7067 16.3863 16.3461 15.7523L15.4769 16.2468L14.6077 16.7412C14.7702 17.0269 14.8798 17.4 14.9387 18.0488C14.999 18.7125 15 19.5662 15 20.7936H16ZM9.72236 14.0516L9.65111 15.0491C10.8754 15.1365 11.7268 15.1983 12.3846 15.3057C13.0275 15.4108 13.3919 15.5466 13.6653 15.7291L14.2204 14.8973L14.7755 14.0656C14.1689 13.6607 13.4902 13.4599 12.7071 13.3319C11.9388 13.2064 10.9813 13.139 9.79361 13.0541L9.72236 14.0516ZM15.4769 16.2468L16.3461 15.7523C15.9611 15.0754 15.4232 14.4978 14.7755 14.0656L14.2204 14.8973L13.6653 15.7291C14.0539 15.9885 14.3766 16.3351 14.6077 16.7412L15.4769 16.2468ZM2 20.7936H3C3 19.5662 3.00096 18.7125 3.06129 18.0488C3.12025 17.4 3.2298 17.0269 3.39234 16.7412L2.52313 16.2468L1.65391 15.7523C1.29332 16.3863 1.14131 17.0775 1.0695 17.8678C0.999039 18.643 1 19.6029 1 20.7936H2ZM8.27764 14.0516L8.20639 13.0541C7.01871 13.139 6.06115 13.2064 5.29291 13.3319C4.50981 13.4599 3.83111 13.6607 3.2245 14.0656L3.7796 14.8973L4.3347 15.7291C4.60814 15.5466 4.97248 15.4108 5.61538 15.3057C6.27315 15.1983 7.12459 15.1365 8.34889 15.0491L8.27764 14.0516ZM2.52313 16.2468L3.39234 16.7412C3.62336 16.3351 3.94605 15.9885 4.3347 15.7291L3.7796 14.8973L3.2245 14.0656C2.57675 14.4978 2.03894 15.0754 1.65391 15.7523L2.52313 16.2468ZM22 18.0868H21V21H22H23V18.0868H22ZM22 18.0868H23C23 17.898 23.0002 17.7717 22.995 17.6541L21.996 17.699L20.997 17.7439C20.9998 17.8058 21 17.8782 21 18.0868H22ZM19 14L18.7003 14.954C18.8994 15.0166 18.9684 15.0385 19.0266 15.0597L19.3688 14.1201L19.711 13.1804C19.6003 13.1401 19.4798 13.1025 19.2997 13.046L19 14ZM21.996 17.699L22.995 17.6541C22.9043 15.6365 21.6087 13.8715 19.711 13.1804L19.3688 14.1201L19.0266 15.0597C20.1652 15.4744 20.9426 16.5333 20.997 17.7439L21.996 17.699Z" fill="black"/>
</svg>
