<svg width="16" height="16" viewBox="0 0 16 16" fill="none" xmlns="http://www.w3.org/2000/svg">
<path fill-rule="evenodd" clip-rule="evenodd" d="M3.90395 2.41159C4.79347 1.81724 5.83925 1.5 6.90906 1.5C8.3436 1.50009 9.71939 2.07 10.7338 3.08437C11.7481 4.09874 12.318 5.47449 12.3181 6.90903C12.3181 7.97884 12.0009 9.02466 11.4065 9.91418C10.8122 10.8037 9.9674 11.497 8.97902 11.9064C7.99065 12.3158 6.90306 12.4229 5.85381 12.2142C4.80455 12.0055 3.84075 11.4903 3.08428 10.7338C2.32781 9.97738 1.81265 9.01357 1.60394 7.96432C1.39523 6.91506 1.50234 5.82748 1.91174 4.8391C2.32114 3.85073 3.01444 3.00595 3.90395 2.41159ZM6.90903 2.5C6.03701 2.50001 5.18458 2.75859 4.45952 3.24306C3.73445 3.72754 3.16933 4.41614 2.83562 5.22179C2.50191 6.02744 2.4146 6.91395 2.58472 7.76923C2.75485 8.6245 3.17477 9.41012 3.79139 10.0267C4.40801 10.6434 5.19362 11.0633 6.0489 11.2334C6.90417 11.4035 7.79069 11.3162 8.59634 10.9825C9.40199 10.6488 10.0906 10.0837 10.5751 9.35861C11.0595 8.63355 11.3181 7.78111 11.3181 6.90909M6.90903 2.5C8.07836 2.50008 9.19981 2.96463 10.0267 3.79148C10.8535 4.61832 11.318 5.73976 11.3181 6.90909" fill="white"/>
<path fill-rule="evenodd" clip-rule="evenodd" d="M10.218 10.218C10.4133 10.0227 10.7299 10.0227 10.9251 10.218L14.3536 13.6464C14.5488 13.8417 14.5488 14.1583 14.3536 14.3536C14.1583 14.5488 13.8417 14.5488 13.6464 14.3536L10.218 10.9251C10.0227 10.7299 10.0227 10.4133 10.218 10.218Z" fill="white"/>
</svg>
