<svg width="24" height="24" viewBox="0 0 24 24" fill="none" xmlns="http://www.w3.org/2000/svg">
<path d="M9.06536 4.55573L8.69776 3.62574L9.06536 4.55573ZM7.24047 4.41234L6.53336 5.11945L7.24047 4.41234ZM4.66074 8.81252L3.74397 8.41311L4.66074 8.81252ZM4.55573 9.06536L3.62574 8.69776L4.55573 9.06536ZM4.55592 14.9346L3.62605 15.3025L4.55592 14.9346ZM4.41239 16.7589L3.70506 16.052L4.41239 16.7589ZM4.66055 15.1863L3.74386 15.5859L4.66055 15.1863ZM4.41266 18.5552L5.11977 17.8481L4.41266 18.5552ZM7.24044 19.5871L6.53311 18.8802L7.24044 19.5871ZM5.44483 19.5874L6.15194 18.8803L5.44483 19.5874ZM8.81283 19.3384L8.41347 20.2552L8.81283 19.3384ZM9.06497 19.4432L8.69736 20.3731L9.06497 19.4432ZM16.759 19.5871L17.4661 18.88L16.759 19.5871ZM15.186 19.3386L14.7865 18.4219L15.186 19.3386ZM18.5555 19.5871L19.2626 20.2942L18.5555 19.5871ZM19.5871 16.759L18.88 17.4661L19.5871 16.759ZM19.5871 18.5555L20.2942 19.2626L19.5871 18.5555ZM19.339 15.1862L18.4225 14.7861L19.339 15.1862ZM19.4438 14.9345L18.5141 14.5661L19.4438 14.9345ZM19.444 9.06547L20.3737 8.69736L19.444 9.06547ZM19.5871 7.24044L18.8802 6.53311L19.5871 7.24044ZM19.3388 8.81266L18.4222 9.21259L19.3388 8.81266ZM19.5874 5.44483L20.2945 4.73773L19.5874 5.44483ZM16.7589 4.41239L16.052 3.70506L16.7589 4.41239ZM14.9346 4.55592L14.5667 5.48578C14.6406 5.51504 14.714 5.54554 14.7867 5.57725L15.1863 4.66055L15.5859 3.74386C15.4923 3.70304 15.3978 3.66376 15.3025 3.62605L14.9346 4.55592ZM18.5552 4.41266L17.8481 5.11977L18.8803 6.15194L19.5874 5.44483L20.2945 4.73773L19.2623 3.70556L18.5552 4.41266ZM19.3388 8.81266L18.4222 9.21259C18.4541 9.28564 18.4848 9.35931 18.5142 9.43358L19.444 9.06547L20.3737 8.69736C20.3358 8.60164 20.2964 8.50675 20.2553 8.41272L19.3388 8.81266ZM22 11.2686H21V12.7314H22H23V11.2686H22ZM19.4438 14.9345L18.5141 14.5661C18.4848 14.64 18.4543 14.7133 18.4225 14.7861L19.339 15.1862L20.2554 15.5863C20.2963 15.4927 20.3357 15.3982 20.3734 15.3029L19.4438 14.9345ZM19.5871 18.5555L18.88 17.8484L17.8484 18.88L18.5555 19.5871L19.2626 20.2942L20.2942 19.2626L19.5871 18.5555ZM15.186 19.3386L14.7865 18.4219C14.714 18.4535 14.6408 18.4839 14.567 18.5131L14.935 19.443L15.3029 20.3728C15.3979 20.3352 15.4922 20.296 15.5856 20.2553L15.186 19.3386ZM12.7309 22V21H11.2691V22V23H12.7309V22ZM9.06497 19.4432L9.43259 18.5132C9.35851 18.4839 9.28503 18.4534 9.21218 18.4216L8.81283 19.3384L8.41347 20.2552C8.50726 20.2961 8.6019 20.3354 8.69736 20.3731L9.06497 19.4432ZM5.44483 19.5874L6.15194 18.8803L5.11977 17.8481L4.41266 18.5552L3.70556 19.2623L4.73773 20.2945L5.44483 19.5874ZM4.66055 15.1863L5.57725 14.7867C5.54554 14.714 5.51504 14.6406 5.48578 14.5667L4.55592 14.9346L3.62605 15.3025C3.66376 15.3978 3.70304 15.4923 3.74386 15.5859L4.66055 15.1863ZM2 12.7314H3V11.2686H2H1V12.7314H2ZM4.55573 9.06536L5.48571 9.43295C5.51508 9.35867 5.54568 9.28499 5.57751 9.21193L4.66074 8.81252L3.74397 8.41311C3.703 8.50715 3.66357 8.60205 3.62574 8.69776L4.55573 9.06536ZM4.41234 5.44508L5.11945 6.15219L6.15219 5.11945L5.44508 4.41234L4.73797 3.70523L3.70523 4.73797L4.41234 5.44508ZM8.81252 4.66074L9.21193 5.57751C9.28499 5.54568 9.35867 5.51508 9.43295 5.48571L9.06536 4.55573L8.69776 3.62574C8.60205 3.66357 8.50715 3.703 8.41311 3.74397L8.81252 4.66074ZM11.2686 2V3H12.7314V2V1H11.2686V2ZM12.7314 2V3C12.8798 3 13 3.12024 13 3.26855H14H15C15 2.01567 13.9843 1 12.7314 1V2ZM10 3.26855H11C11 3.12024 11.1202 3 11.2686 3V2V1C10.0157 1 9 2.01567 9 3.26855H10ZM9.06536 4.55573L9.43295 5.48571C10.2846 5.14908 11 4.32659 11 3.26855H10H9C9 3.36816 8.9227 3.53683 8.69776 3.62574L9.06536 4.55573ZM7.24047 4.41234L6.53336 5.11945C7.28195 5.86804 8.37058 5.94406 9.21193 5.57751L8.81252 4.66074L8.41311 3.74397C8.19216 3.84023 8.01834 3.776 7.94757 3.70523L7.24047 4.41234ZM5.44508 4.41234L6.15219 5.11945C6.25745 5.01419 6.4281 5.01419 6.53336 5.11945L7.24047 4.41234L7.94757 3.70523C7.06127 2.81893 5.62428 2.81893 4.73797 3.70523L5.44508 4.41234ZM4.41234 7.24047L5.11945 6.53336C5.01419 6.4281 5.01419 6.25744 5.11945 6.15219L4.41234 5.44508L3.70523 4.73797C2.81893 5.62428 2.81893 7.06127 3.70523 7.94757L4.41234 7.24047ZM4.66074 8.81252L5.57751 9.21193C5.94406 8.37058 5.86804 7.28195 5.11945 6.53336L4.41234 7.24047L3.70523 7.94757C3.776 8.01834 3.84023 8.19216 3.74397 8.41311L4.66074 8.81252ZM3.26855 10V11C4.32659 11 5.14908 10.2846 5.48571 9.43295L4.55573 9.06536L3.62574 8.69776C3.53683 8.9227 3.36816 9 3.26855 9V10ZM2 11.2686H3C3 11.1202 3.12024 11 3.26855 11V10V9C2.01567 9 1 10.0157 1 11.2686H2ZM3.26855 14V13C3.12024 13 3 12.8798 3 12.7314H2H1C1 13.9843 2.01567 15 3.26855 15V14ZM4.55592 14.9346L5.48578 14.5667C5.14896 13.7154 4.3266 13 3.26855 13V14V15C3.36815 15 3.53697 15.0773 3.62605 15.3025L4.55592 14.9346ZM4.41239 16.7589L5.11971 17.4658C5.8681 16.717 5.94407 15.6283 5.57725 14.7867L4.66055 15.1863L3.74386 15.5859C3.8402 15.8069 3.77605 15.981 3.70506 16.052L4.41239 16.7589ZM4.41266 18.5552L5.11977 17.8481C5.01421 17.7426 5.01418 17.5714 5.11971 17.4658L4.41239 16.7589L3.70506 16.052C2.81889 16.9388 2.81911 18.3759 3.70556 19.2623L4.41266 18.5552ZM7.24044 19.5871L6.53311 18.8802C6.42788 18.9855 6.25721 18.9856 6.15194 18.8803L5.44483 19.5874L4.73773 20.2945C5.62421 21.181 7.06155 21.1808 7.94776 20.294L7.24044 19.5871ZM8.81283 19.3384L9.21218 18.4216C8.37065 18.0551 7.28169 18.1312 6.53311 18.8802L7.24044 19.5871L7.94776 20.294C8.0185 20.2232 8.19239 20.1589 8.41347 20.2552L8.81283 19.3384ZM10 20.7309H11C11 19.6726 10.2844 18.8499 9.43259 18.5132L9.06497 19.4432L8.69736 20.3731C8.92253 20.4621 9 20.631 9 20.7309H10ZM11.2691 22V21C11.1205 21 11 20.8795 11 20.7309H10H9C9 21.9841 10.0159 23 11.2691 23V22ZM14 20.7309H13C13 20.8795 12.8795 21 12.7309 21V22V23C13.9841 23 15 21.9841 15 20.7309H14ZM14.935 19.443L14.567 18.5131C13.7155 18.85 13 19.6726 13 20.7309H14H15C15 20.631 15.0775 20.462 15.3029 20.3728L14.935 19.443ZM16.759 19.5871L17.4661 18.88C16.7172 18.1311 15.6282 18.0551 14.7865 18.4219L15.186 19.3386L15.5856 20.2553C15.8067 20.159 15.9809 20.2232 16.0519 20.2942L16.759 19.5871ZM18.5555 19.5871L17.8484 18.88C17.7428 18.9856 17.5716 18.9856 17.4661 18.88L16.759 19.5871L16.0519 20.2942C16.9385 21.1808 18.376 21.1808 19.2626 20.2942L18.5555 19.5871ZM19.5871 16.759L18.88 17.4661C18.9856 17.5716 18.9856 17.7428 18.88 17.8484L19.5871 18.5555L20.2942 19.2626C21.1808 18.376 21.1808 16.9385 20.2942 16.0519L19.5871 16.759ZM19.339 15.1862L18.4225 14.7861C18.0549 15.628 18.1312 16.7172 18.88 17.4661L19.5871 16.759L20.2942 16.0519C20.2232 15.9809 20.1591 15.8069 20.2554 15.5863L19.339 15.1862ZM20.7314 14V13C19.6734 13 18.8512 13.7154 18.5141 14.5661L19.4438 14.9345L20.3734 15.3029C20.4628 15.0774 20.6319 15 20.7314 15V14ZM22 12.7314H21C21 12.8798 20.8798 13 20.7314 13V14V15C21.9843 15 23 13.9843 23 12.7314H22ZM20.7314 10V11C20.8798 11 21 11.1202 21 11.2686H22H23C23 10.0157 21.9843 9 20.7314 9V10ZM19.444 9.06547L18.5142 9.43358C18.8511 10.2846 19.6734 11 20.7314 11V10V9C20.6319 9 20.4629 8.92266 20.3737 8.69736L19.444 9.06547ZM19.5871 7.24044L18.8802 6.53311C18.1312 7.28169 18.0549 8.37083 18.4222 9.21259L19.3388 8.81266L20.2553 8.41272C20.1591 8.19216 20.2232 8.01851 20.294 7.94776L19.5871 7.24044ZM19.5874 5.44483L18.8803 6.15194C18.9856 6.25721 18.9855 6.42788 18.8802 6.53311L19.5871 7.24044L20.294 7.94776C21.1808 7.06155 21.181 5.62421 20.2945 4.73773L19.5874 5.44483ZM16.7589 4.41239L17.4658 5.11971C17.5714 5.01418 17.7426 5.01421 17.8481 5.11977L18.5552 4.41266L19.2623 3.70556C18.3759 2.81911 16.9388 2.81889 16.052 3.70506L16.7589 4.41239ZM15.1863 4.66055L14.7867 5.57725C15.6283 5.94407 16.717 5.8681 17.4658 5.11971L16.7589 4.41239L16.052 3.70506C15.981 3.77605 15.8069 3.8402 15.5859 3.74386L15.1863 4.66055ZM14.9346 4.55592L15.3025 3.62605C15.0773 3.53697 15 3.36815 15 3.26855H14H13C13 4.3266 13.7154 5.14896 14.5667 5.48578L14.9346 4.55592Z" fill="black"/>
<circle cx="12" cy="12" r="4" stroke="black" stroke-width="2"/>
</svg>
